# xmcd CD database file generated by Grip 3.2.0
# 
# Track frame offsets:
#       150
#       23123
#       40526
#       66768
#       86828
#       104634
#       128257
#       150318
#       170213
#       194963
#       209790
#       222269
#       245037
#       265129
#       283422
# 
# Disc length: 4079 seconds
# 
# Revision: 1
# Processed by: cddbd v1.5.2PL0 Copyright (c) Steve Scherf et al.
# Submitted via: Grip 3.2.0
# 
DISCID=ea0fed0f
DTITLE=Cliff Le Jeune and Paul Simon and The Blue Engine String Quartet - If It B
DTITLE=e Your Will - The Songs of Leonard Cohen
DYEAR=2003
DGENRE=Jazz
TTITLE0=Famous  Blue Raincoat
TTITLE1=The Law
TTITLE2=Joan of Arc
TTITLE3=Suzanne
TTITLE4=Song of Bernadette
TTITLE5=Story of Isaac
TTITLE6=Hallelujah
TTITLE7=Avalanche IV
TTITLE8=Paper Thin Hotel
TTITLE9=Everybody Knows
TTITLE10=I'm Your Man
TTITLE11=Take This Waltz
TTITLE12=Bird on a Wire
TTITLE13=Tower of Song
TTITLE14=If It Be Your Will
EXTD=YEAR: 2003
EXTT0=
EXTT1=
EXTT2=
EXTT3=
EXTT4=
EXTT5=
EXTT6=
EXTT7=
EXTT8=
EXTT9=
EXTT10=
EXTT11=
EXTT12=
EXTT13=
EXTT14=
PLAYORDER=
